STARTFONT 2.1
FONT -FontForge-Indie Flower-Book-R-Normal--19-180-75-75-P-88-ISO10646-1
SIZE 18 75 75
FONTBOUNDINGBOX 24 28 -3 -9
COMMENT "Generated by fontforge, http://fontforge.sourceforge.net"
COMMENT "Copyright (c) 2010, Kimberly Geswein (kimberlygeswein.com)"
STARTPROPERTIES 39
FOUNDRY "FontForge"
FAMILY_NAME "Indie Flower"
WEIGHT_NAME "Book"
SLANT "R"
SETWIDTH_NAME "Normal"
ADD_STYLE_NAME ""
PIXEL_SIZE 19
POINT_SIZE 180
RESOLUTION_X 75
RESOLUTION_Y 75
SPACING "P"
AVERAGE_WIDTH 88
CHARSET_REGISTRY "ISO10646"
CHARSET_ENCODING "1"
FONTNAME_REGISTRY ""
CHARSET_COLLECTIONS "ISO8859-2 ISO8859-9 ISO8859-4 ISO10646-1"
FONT_NAME "IndieFlower"
FACE_NAME "Indie Flower"
COPYRIGHT "Copyright (c) 2010, Kimberly Geswein (kimberlygeswein.com)"
FONT_VERSION "1.001 2010"
FONT_ASCENT 15
FONT_DESCENT 4
UNDERLINE_POSITION -2
UNDERLINE_THICKNESS 1
X_HEIGHT 6
CAP_HEIGHT 9
RAW_ASCENT 799
RAW_DESCENT 200
NORM_SPACE 7
RELATIVE_WEIGHT 40
RELATIVE_SETWIDTH 50
SUPERSCRIPT_X 0
SUPERSCRIPT_Y 9
SUPERSCRIPT_SIZE 12
SUBSCRIPT_X 0
SUBSCRIPT_Y 2
SUBSCRIPT_SIZE 12
AVG_LOWERCASE_WIDTH 86
AVG_UPPERCASE_WIDTH 103
ENDPROPERTIES
CHARS 356
STARTCHAR space
ENCODING 32
SWIDTH 375 0
DWIDTH 7 0
BBX 1 1 0 0
BITMAP
00
ENDCHAR
STARTCHAR exclam
ENCODING 33
SWIDTH 149 0
DWIDTH 3 0
BBX 3 16 0 0
BITMAP
40
40
40
40
40
40
40
40
40
40
40
00
00
00
C0
E0
ENDCHAR
STARTCHAR quotedbl
ENCODING 34
SWIDTH 234 0
DWIDTH 4 0
BBX 4 6 0 9
BITMAP
A0
90
90
50
50
10
ENDCHAR
STARTCHAR numbersign
ENCODING 35
SWIDTH 768 0
DWIDTH 15 0
BBX 14 9 0 0
BITMAP
0480
0280
03F8
3E40
C27C
07E4
3A40
0240
0040
ENDCHAR
STARTCHAR dollar
ENCODING 36
SWIDTH 581 0
DWIDTH 11 0
BBX 11 18 0 0
BITMAP
0400
0300
0500
0700
0D80
1500
1500
0D00
0500
0780
0640
0640
CA20
6A20
3A40
0EC0
0B00
0A00
ENDCHAR
STARTCHAR percent
ENCODING 37
SWIDTH 636 0
DWIDTH 12 0
BBX 12 12 0 0
BITMAP
0040
0040
7080
8900
8A00
5200
2440
04A0
0910
1920
1160
11C0
ENDCHAR
STARTCHAR ampersand
ENCODING 38
SWIDTH 457 0
DWIDTH 9 0
BBX 8 13 0 0
BITMAP
18
18
18
18
10
13
32
34
4C
4C
8C
92
62
ENDCHAR
STARTCHAR quotesingle
ENCODING 39
SWIDTH 102 0
DWIDTH 2 0
BBX 2 5 0 9
BITMAP
80
80
C0
40
40
ENDCHAR
STARTCHAR parenleft
ENCODING 40
SWIDTH 421 0
DWIDTH 8 0
BBX 8 12 0 -1
BITMAP
07
08
10
20
40
40
C0
80
80
40
70
18
ENDCHAR
STARTCHAR parenright
ENCODING 41
SWIDTH 290 0
DWIDTH 6 0
BBX 5 12 0 -1
BITMAP
60
30
18
08
08
08
08
18
10
20
60
C0
ENDCHAR
STARTCHAR asterisk
ENCODING 42
SWIDTH 412 0
DWIDTH 8 0
BBX 7 8 0 4
BITMAP
02
56
38
7E
BC
6C
4A
08
ENDCHAR
STARTCHAR plus
ENCODING 43
SWIDTH 459 0
DWIDTH 9 0
BBX 8 8 0 0
BITMAP
10
10
18
1F
E8
08
08
08
ENDCHAR
STARTCHAR comma
ENCODING 44
SWIDTH 130 0
DWIDTH 2 0
BBX 2 7 0 -4
BITMAP
40
C0
40
40
C0
80
80
ENDCHAR
STARTCHAR hyphen
ENCODING 45
SWIDTH 375 0
DWIDTH 7 0
BBX 6 1 0 5
BITMAP
FC
ENDCHAR
STARTCHAR period
ENCODING 46
SWIDTH 204 0
DWIDTH 4 0
BBX 2 4 1 0
BITMAP
80
C0
C0
C0
ENDCHAR
STARTCHAR slash
ENCODING 47
SWIDTH 309 0
DWIDTH 6 0
BBX 6 14 0 0
BITMAP
04
08
08
08
18
10
10
30
20
20
40
40
C0
80
ENDCHAR
STARTCHAR zero
ENCODING 48
SWIDTH 430 0
DWIDTH 8 0
BBX 8 8 0 0
BITMAP
1C
66
42
81
81
42
62
3C
ENDCHAR
STARTCHAR one
ENCODING 49
SWIDTH 318 0
DWIDTH 6 0
BBX 6 11 0 0
BITMAP
04
0C
08
18
38
68
C8
08
18
10
10
ENDCHAR
STARTCHAR two
ENCODING 50
SWIDTH 497 0
DWIDTH 9 0
BBX 9 10 0 0
BITMAP
0E00
0900
1100
0100
0100
0100
0300
E200
FE00
3380
ENDCHAR
STARTCHAR three
ENCODING 51
SWIDTH 430 0
DWIDTH 8 0
BBX 8 10 0 0
BITMAP
7C
44
04
18
78
06
02
C1
63
1E
ENDCHAR
STARTCHAR four
ENCODING 52
SWIDTH 412 0
DWIDTH 8 0
BBX 7 11 0 0
BITMAP
40
40
C2
82
82
46
6E
3A
02
02
02
ENDCHAR
STARTCHAR five
ENCODING 53
SWIDTH 571 0
DWIDTH 11 0
BBX 10 13 0 0
BITMAP
0080
0FC0
1800
1000
1000
3C00
0300
0080
0080
8080
8080
6180
3E00
ENDCHAR
STARTCHAR six
ENCODING 54
SWIDTH 440 0
DWIDTH 8 0
BBX 8 11 0 0
BITMAP
0F
10
20
40
40
7E
83
81
41
66
3C
ENDCHAR
STARTCHAR seven
ENCODING 55
SWIDTH 412 0
DWIDTH 8 0
BBX 7 10 1 0
BITMAP
F8
08
08
08
18
FE
10
10
10
20
ENDCHAR
STARTCHAR eight
ENCODING 56
SWIDTH 375 0
DWIDTH 7 0
BBX 7 11 0 0
BITMAP
38
48
8C
C8
70
30
48
44
42
62
1C
ENDCHAR
STARTCHAR nine
ENCODING 57
SWIDTH 300 0
DWIDTH 6 0
BBX 6 11 0 0
BITMAP
70
48
8C
88
48
38
08
08
08
08
08
ENDCHAR
STARTCHAR colon
ENCODING 58
SWIDTH 84 0
DWIDTH 2 0
BBX 1 5 0 1
BITMAP
80
00
00
00
80
ENDCHAR
STARTCHAR semicolon
ENCODING 59
SWIDTH 128 0
DWIDTH 2 0
BBX 2 10 0 -3
BITMAP
C0
00
00
00
40
40
40
40
80
80
ENDCHAR
STARTCHAR less
ENCODING 60
SWIDTH 487 0
DWIDTH 9 0
BBX 9 8 0 0
BITMAP
0180
0300
0C00
1800
2000
4000
FE00
0300
ENDCHAR
STARTCHAR equal
ENCODING 61
SWIDTH 524 0
DWIDTH 10 0
BBX 9 5 0 2
BITMAP
FF80
0000
0000
3F00
FF80
ENDCHAR
STARTCHAR greater
ENCODING 62
SWIDTH 403 0
DWIDTH 8 0
BBX 7 9 1 0
BITMAP
80
C0
3C
06
0C
18
30
C0
80
ENDCHAR
STARTCHAR question
ENCODING 63
SWIDTH 272 0
DWIDTH 5 0
BBX 5 16 0 0
BITMAP
F0
08
08
08
18
10
30
20
60
38
00
00
00
00
00
18
ENDCHAR
STARTCHAR at
ENCODING 64
SWIDTH 815 0
DWIDTH 16 0
BBX 15 17 0 0
BITMAP
0780
1860
3018
2004
4006
81C2
8632
8412
8862
8862
4864
48DC
2780
3000
1800
0C0C
03F8
ENDCHAR
STARTCHAR A
ENCODING 65
SWIDTH 562 0
DWIDTH 11 0
BBX 10 14 0 0
BITMAP
1E00
2100
4080
4080
4080
4040
4040
4040
FFC0
4040
4040
4040
4040
4040
ENDCHAR
STARTCHAR B
ENCODING 66
SWIDTH 741 0
DWIDTH 14 0
BBX 14 13 0 0
BITMAP
3F00
D8C0
0840
0840
0980
0F80
04E0
0410
0408
040C
040C
0E08
03F0
ENDCHAR
STARTCHAR C
ENCODING 67
SWIDTH 515 0
DWIDTH 10 0
BBX 9 12 0 0
BITMAP
0E00
1B00
2200
4000
4000
8000
8000
8000
8000
4000
6380
3C00
ENDCHAR
STARTCHAR D
ENCODING 68
SWIDTH 741 0
DWIDTH 14 0
BBX 14 12 0 0
BITMAP
7E00
87C0
0260
0210
0208
0208
020C
020C
0308
0318
0830
07E0
ENDCHAR
STARTCHAR E
ENCODING 69
SWIDTH 524 0
DWIDTH 10 0
BBX 9 12 0 0
BITMAP
7F00
4080
4000
4000
4100
FE00
4000
8000
8000
8000
8180
7F00
ENDCHAR
STARTCHAR F
ENCODING 70
SWIDTH 514 0
DWIDTH 10 0
BBX 13 11 -1 0
BITMAP
7FF0
8818
0800
0800
0800
3FC0
0800
0800
0800
0C00
0400
ENDCHAR
STARTCHAR G
ENCODING 71
SWIDTH 571 0
DWIDTH 11 0
BBX 10 11 1 -1
BITMAP
0780
1880
2000
4000
8900
8F80
8080
8080
C380
7C80
00C0
ENDCHAR
STARTCHAR H
ENCODING 72
SWIDTH 524 0
DWIDTH 10 0
BBX 9 13 0 0
BITMAP
0080
8080
4080
4080
4080
4180
4680
7880
E080
4080
2080
2080
2080
ENDCHAR
STARTCHAR I
ENCODING 73
SWIDTH 167 0
DWIDTH 3 0
BBX 3 11 0 0
BITMAP
80
80
40
40
40
40
40
60
20
20
20
ENDCHAR
STARTCHAR J
ENCODING 74
SWIDTH 439 0
DWIDTH 8 0
BBX 8 13 0 0
BITMAP
02
02
02
03
01
01
81
81
41
21
21
19
06
ENDCHAR
STARTCHAR K
ENCODING 75
SWIDTH 468 0
DWIDTH 9 0
BBX 8 11 0 0
BITMAP
86
88
98
70
60
40
60
50
4C
46
41
ENDCHAR
STARTCHAR L
ENCODING 76
SWIDTH 346 0
DWIDTH 7 0
BBX 6 10 0 0
BITMAP
40
40
40
40
40
80
80
80
40
3C
ENDCHAR
STARTCHAR M
ENCODING 77
SWIDTH 534 0
DWIDTH 10 0
BBX 10 12 0 0
BITMAP
8080
4080
6180
6380
5F80
4080
4080
4080
4080
4080
40C0
00C0
ENDCHAR
STARTCHAR N
ENCODING 78
SWIDTH 609 0
DWIDTH 12 0
BBX 10 10 1 0
BITMAP
8000
8180
8080
C080
C040
E040
A040
9040
8D80
8700
ENDCHAR
STARTCHAR O
ENCODING 79
SWIDTH 609 0
DWIDTH 12 0
BBX 11 9 0 0
BITMAP
3E00
4300
80C0
8040
8020
4020
4020
30C0
1F00
ENDCHAR
STARTCHAR P
ENCODING 80
SWIDTH 627 0
DWIDTH 12 0
BBX 12 11 0 0
BITMAP
7F80
80C0
0820
0810
0430
0420
07C0
0400
0400
0400
0400
ENDCHAR
STARTCHAR Q
ENCODING 81
SWIDTH 642 0
DWIDTH 12 0
BBX 12 12 0 -2
BITMAP
1E00
2380
41C0
4260
C020
4010
4210
4320
31E0
0FC0
0060
0030
ENDCHAR
STARTCHAR R
ENCODING 82
SWIDTH 579 0
DWIDTH 11 0
BBX 11 13 0 -1
BITMAP
7E00
8180
80C0
2040
21C0
3F00
1000
1800
1C00
1600
1300
1080
0060
ENDCHAR
STARTCHAR S
ENCODING 83
SWIDTH 627 0
DWIDTH 12 0
BBX 11 11 0 0
BITMAP
1FC0
2040
1000
1000
0C00
0300
80C0
8020
4020
2020
1FC0
ENDCHAR
STARTCHAR T
ENCODING 84
SWIDTH 581 0
DWIDTH 11 0
BBX 13 11 0 0
BITMAP
FFF0
0218
0200
0200
0200
0200
0200
0300
0100
0100
0180
ENDCHAR
STARTCHAR U
ENCODING 85
SWIDTH 571 0
DWIDTH 11 0
BBX 10 10 1 0
BITMAP
8100
8100
8100
8100
8100
8100
8180
C380
66C0
3800
ENDCHAR
STARTCHAR V
ENCODING 86
SWIDTH 421 0
DWIDTH 8 0
BBX 8 10 0 0
BITMAP
82
43
42
62
22
32
16
1C
0C
08
ENDCHAR
STARTCHAR W
ENCODING 87
SWIDTH 703 0
DWIDTH 13 0
BBX 13 9 0 0
BITMAP
8030
8010
8010
8418
C408
4608
4608
6910
30E0
ENDCHAR
STARTCHAR X
ENCODING 88
SWIDTH 534 0
DWIDTH 10 0
BBX 10 11 0 -1
BITMAP
4000
20C0
1100
1600
0C00
1800
3400
2600
4300
4100
8000
ENDCHAR
STARTCHAR Y
ENCODING 89
SWIDTH 403 0
DWIDTH 8 0
BBX 7 12 0 0
BITMAP
82
42
62
32
1E
04
04
08
08
08
08
08
ENDCHAR
STARTCHAR Z
ENCODING 90
SWIDTH 571 0
DWIDTH 11 0
BBX 11 12 0 0
BITMAP
7800
C600
0200
0100
0200
0200
3FC0
0400
0800
0800
11E0
1F80
ENDCHAR
STARTCHAR bracketleft
ENCODING 91
SWIDTH 477 0
DWIDTH 9 0
BBX 10 15 0 -2
BITMAP
0F80
7000
C000
4000
4000
4000
2000
2000
2000
2000
2000
2000
2000
3FC0
1000
ENDCHAR
STARTCHAR backslash
ENCODING 92
SWIDTH 430 0
DWIDTH 8 0
BBX 8 10 0 0
BITMAP
80
40
20
30
18
0C
04
02
03
01
ENDCHAR
STARTCHAR bracketright
ENCODING 93
SWIDTH 430 0
DWIDTH 8 0
BBX 8 18 0 -2
BITMAP
F0
1C
02
02
02
02
02
02
02
02
02
01
01
01
01
01
7F
7F
ENDCHAR
STARTCHAR asciicircum
ENCODING 94
SWIDTH 375 0
DWIDTH 7 0
BBX 5 4 1 10
BITMAP
20
30
58
88
ENDCHAR
STARTCHAR underscore
ENCODING 95
SWIDTH 656 0
DWIDTH 12 0
BBX 11 2 1 0
BITMAP
F800
0FE0
ENDCHAR
STARTCHAR grave
ENCODING 96
SWIDTH 172 0
DWIDTH 3 0
BBX 3 3 0 8
BITMAP
80
40
20
ENDCHAR
STARTCHAR a
ENCODING 97
SWIDTH 505 0
DWIDTH 10 0
BBX 9 9 0 0
BITMAP
1C00
0200
0100
3D00
6380
8180
8080
6180
3F00
ENDCHAR
STARTCHAR b
ENCODING 98
SWIDTH 497 0
DWIDTH 9 0
BBX 9 12 0 0
BITMAP
8000
8000
C000
4000
4000
4000
7E00
4100
4080
4080
3180
1F00
ENDCHAR
STARTCHAR c
ENCODING 99
SWIDTH 449 0
DWIDTH 9 0
BBX 8 8 0 0
BITMAP
3C
62
42
80
80
40
60
3F
ENDCHAR
STARTCHAR d
ENCODING 100
SWIDTH 524 0
DWIDTH 10 0
BBX 10 14 0 0
BITMAP
0200
0300
0100
0100
0180
3980
6780
4380
C180
C180
C180
4280
6E80
3840
ENDCHAR
STARTCHAR e
ENCODING 101
SWIDTH 515 0
DWIDTH 10 0
BBX 9 10 0 0
BITMAP
1C00
2600
4200
4200
8400
B800
4000
4000
3000
1F80
ENDCHAR
STARTCHAR f
ENCODING 102
SWIDTH 376 0
DWIDTH 7 0
BBX 9 13 0 0
BITMAP
1E00
3100
2080
2000
2000
2000
2000
FE00
3000
1000
1800
0800
0C00
ENDCHAR
STARTCHAR g
ENCODING 103
SWIDTH 366 0
DWIDTH 7 0
BBX 10 17 -3 -9
BITMAP
0300
0480
0880
0880
10C0
18C0
0FC0
06C0
0040
0040
0040
0040
4040
8040
4040
3880
0F80
ENDCHAR
STARTCHAR h
ENCODING 104
SWIDTH 427 0
DWIDTH 8 0
BBX 7 13 0 0
BITMAP
80
80
80
40
58
7C
42
42
42
42
42
42
42
ENDCHAR
STARTCHAR i
ENCODING 105
SWIDTH 174 0
DWIDTH 3 0
BBX 3 11 0 0
BITMAP
C0
00
00
40
40
40
40
60
60
20
20
ENDCHAR
STARTCHAR j
ENCODING 106
SWIDTH 200 0
DWIDTH 4 0
BBX 6 20 -2 -9
BITMAP
10
00
00
10
08
08
08
08
0C
0C
04
04
04
84
84
C4
44
24
1C
08
ENDCHAR
STARTCHAR k
ENCODING 107
SWIDTH 403 0
DWIDTH 8 0
BBX 8 12 0 0
BITMAP
80
80
80
84
48
50
70
60
60
60
5C
47
ENDCHAR
STARTCHAR l
ENCODING 108
SWIDTH 120 0
DWIDTH 2 0
BBX 2 11 0 0
BITMAP
80
40
40
40
C0
C0
C0
40
40
40
40
ENDCHAR
STARTCHAR m
ENCODING 109
SWIDTH 750 0
DWIDTH 14 0
BBX 13 8 1 0
BITMAP
40E0
FB30
8E10
8418
8408
8608
8208
8010
ENDCHAR
STARTCHAR n
ENCODING 110
SWIDTH 459 0
DWIDTH 9 0
BBX 7 8 1 0
BITMAP
38
C4
86
82
82
82
82
42
ENDCHAR
STARTCHAR o
ENCODING 111
SWIDTH 487 0
DWIDTH 9 0
BBX 9 8 0 0
BITMAP
1E00
6300
4100
8080
8080
4100
6300
3C00
ENDCHAR
STARTCHAR p
ENCODING 112
SWIDTH 520 0
DWIDTH 10 0
BBX 10 14 0 -7
BITMAP
0C00
3B00
4080
C080
E0C0
DF80
4000
4000
6000
6000
2000
2000
2000
2000
ENDCHAR
STARTCHAR q
ENCODING 113
SWIDTH 412 0
DWIDTH 8 0
BBX 7 15 0 -6
BITMAP
3E
42
42
82
82
86
46
7E
1E
02
02
02
02
02
02
ENDCHAR
STARTCHAR r
ENCODING 114
SWIDTH 346 0
DWIDTH 7 0
BBX 6 9 0 0
BITMAP
18
EC
C0
C0
40
40
40
60
20
ENDCHAR
STARTCHAR s
ENCODING 115
SWIDTH 514 0
DWIDTH 10 0
BBX 9 9 0 0
BITMAP
1800
6400
4200
4000
3E00
0180
0080
E080
3F00
ENDCHAR
STARTCHAR t
ENCODING 116
SWIDTH 328 0
DWIDTH 6 0
BBX 6 12 0 0
BITMAP
20
30
30
30
FC
30
30
30
30
10
10
10
ENDCHAR
STARTCHAR u
ENCODING 117
SWIDTH 501 0
DWIDTH 10 0
BBX 9 9 0 0
BITMAP
8000
8100
8100
8100
4100
4300
2480
1880
0080
ENDCHAR
STARTCHAR v
ENCODING 118
SWIDTH 389 0
DWIDTH 7 0
BBX 7 7 0 0
BITMAP
80
42
44
24
2C
18
18
ENDCHAR
STARTCHAR w
ENCODING 119
SWIDTH 656 0
DWIDTH 12 0
BBX 12 8 0 0
BITMAP
4000
C020
8220
8210
8210
4610
6D30
38E0
ENDCHAR
STARTCHAR x
ENCODING 120
SWIDTH 448 0
DWIDTH 9 0
BBX 8 8 0 -1
BITMAP
C3
66
38
18
2C
46
42
01
ENDCHAR
STARTCHAR y
ENCODING 121
SWIDTH 487 0
DWIDTH 9 0
BBX 9 17 0 -9
BITMAP
8100
8100
8100
4180
4180
6180
3680
0880
0080
0080
0080
0080
0080
4080
4100
3100
1E00
ENDCHAR
STARTCHAR z
ENCODING 122
SWIDTH 459 0
DWIDTH 9 0
BBX 8 10 0 0
BITMAP
38
C4
04
04
04
7E
10
20
23
3E
ENDCHAR
STARTCHAR braceleft
ENCODING 123
SWIDTH 393 0
DWIDTH 7 0
BBX 8 19 0 -2
BITMAP
1E
22
40
C0
80
80
40
30
1C
3C
44
04
08
30
20
40
40
20
1F
ENDCHAR
STARTCHAR bar
ENCODING 124
SWIDTH 149 0
DWIDTH 3 0
BBX 2 12 0 0
BITMAP
80
80
40
40
40
40
40
40
40
40
40
40
ENDCHAR
STARTCHAR braceright
ENCODING 125
SWIDTH 440 0
DWIDTH 8 0
BBX 8 22 0 -4
BITMAP
F8
86
42
02
04
08
10
20
30
3E
20
10
08
04
04
02
02
01
01
01
82
7E
ENDCHAR
STARTCHAR asciitilde
ENCODING 126
SWIDTH 402 0
DWIDTH 8 0
BBX 7 2 0 8
BITMAP
76
8C
ENDCHAR
STARTCHAR nonbreakingspace
ENCODING 160
SWIDTH 375 0
DWIDTH 7 0
BBX 1 1 0 0
BITMAP
00
ENDCHAR
STARTCHAR exclamdown
ENCODING 161
SWIDTH 149 0
DWIDTH 3 0
BBX 3 13 0 0
BITMAP
C0
60
00
00
40
40
40
40
40
40
40
40
40
ENDCHAR
STARTCHAR cent
ENCODING 162
SWIDTH 449 0
DWIDTH 9 0
BBX 8 11 0 -1
BITMAP
10
08
3E
4A
4C
88
88
48
68
3F
08
ENDCHAR
STARTCHAR sterling
ENCODING 163
SWIDTH 758 0
DWIDTH 14 0
BBX 14 14 0 0
BITMAP
0030
00C8
0084
0104
0100
03E0
1FA0
2200
0200
0200
0400
4400
FFC0
7000
ENDCHAR
STARTCHAR currency
ENCODING 164
SWIDTH 618 0
DWIDTH 12 0
BBX 10 10 1 0
BITMAP
8040
DF80
6180
4080
4080
4080
4180
7700
4900
8180
ENDCHAR
STARTCHAR yen
ENCODING 165
SWIDTH 389 0
DWIDTH 7 0
BBX 8 14 0 0
BITMAP
40
43
26
24
2C
18
18
08
FE
10
7C
10
10
10
ENDCHAR
STARTCHAR brokenbar
ENCODING 166
SWIDTH 117 0
DWIDTH 2 0
BBX 2 11 0 0
BITMAP
80
40
40
40
80
00
C0
C0
C0
40
40
ENDCHAR
STARTCHAR section
ENCODING 167
SWIDTH 514 0
DWIDTH 10 0
BBX 9 13 1 0
BITMAP
3000
FE00
8200
8100
7C00
C300
8180
8180
7F00
0300
8100
C100
3E00
ENDCHAR
STARTCHAR dieresis
ENCODING 168
SWIDTH 397 0
DWIDTH 8 0
BBX 5 2 1 8
BITMAP
58
D8
ENDCHAR
STARTCHAR copyright
ENCODING 169
SWIDTH 667 0
DWIDTH 13 0
BBX 11 11 1 0
BITMAP
1C00
2700
44C0
9A40
9320
A020
A020
B020
DFA0
60C0
3F00
ENDCHAR
STARTCHAR ordfeminine
ENCODING 170
SWIDTH 266 0
DWIDTH 5 0
BBX 5 5 0 4
BITMAP
60
10
70
88
70
ENDCHAR
STARTCHAR guillemotleft
ENCODING 171
SWIDTH 755 0
DWIDTH 14 0
BBX 13 9 0 0
BITMAP
0008
01B0
0340
0D80
1A00
2600
43F0
FE18
0300
ENDCHAR
STARTCHAR logicalnot
ENCODING 172
SWIDTH 369 0
DWIDTH 7 0
BBX 6 3 1 5
BITMAP
FC
04
08
ENDCHAR
STARTCHAR hyphen_
ENCODING 173
SWIDTH 375 0
DWIDTH 7 0
BBX 6 1 0 5
BITMAP
FC
ENDCHAR
STARTCHAR registered
ENCODING 174
SWIDTH 708 0
DWIDTH 13 0
BBX 11 11 1 0
BITMAP
1E00
6380
4CC0
B360
91A0
9F20
8820
8C20
4B60
71C0
1E00
ENDCHAR
STARTCHAR macron
ENCODING 175
SWIDTH 287 0
DWIDTH 5 0
BBX 5 1 1 9
BITMAP
F8
ENDCHAR
STARTCHAR degree
ENCODING 176
SWIDTH 254 0
DWIDTH 5 0
BBX 4 5 0 5
BITMAP
70
90
90
90
60
ENDCHAR
STARTCHAR plusminus
ENCODING 177
SWIDTH 459 0
DWIDTH 9 0
BBX 9 8 0 1
BITMAP
1000
1000
0800
3F00
C880
0800
0800
7F00
ENDCHAR
STARTCHAR twosuperior
ENCODING 178
SWIDTH 296 0
DWIDTH 6 0
BBX 5 6 0 4
BITMAP
30
10
10
10
D0
78
ENDCHAR
STARTCHAR threesuperior
ENCODING 179
SWIDTH 204 0
DWIDTH 4 0
BBX 4 6 0 5
BITMAP
E0
20
C0
20
90
70
ENDCHAR
STARTCHAR acute
ENCODING 180
SWIDTH 180 0
DWIDTH 3 0
BBX 3 3 0 7
BITMAP
60
C0
80
ENDCHAR
STARTCHAR mu
ENCODING 181
SWIDTH 501 0
DWIDTH 10 0
BBX 9 10 0 -1
BITMAP
8000
8100
8100
8100
C100
C300
E780
BC80
8080
8000
ENDCHAR
STARTCHAR paragraph
ENCODING 182
SWIDTH 413 0
DWIDTH 8 0
BBX 7 11 0 -1
BITMAP
3C
7E
FA
FA
7A
0A
0A
0A
0A
0A
02
ENDCHAR
STARTCHAR periodcentered
ENCODING 183
SWIDTH 212 0
DWIDTH 4 0
BBX 2 3 1 3
BITMAP
80
C0
C0
ENDCHAR
STARTCHAR cedilla
ENCODING 184
SWIDTH 445 0
DWIDTH 8 0
BBX 5 6 3 -6
BITMAP
80
80
70
08
C8
70
ENDCHAR
STARTCHAR onesuperior
ENCODING 185
SWIDTH 197 0
DWIDTH 4 0
BBX 3 7 0 4
BITMAP
20
20
60
A0
A0
20
40
ENDCHAR
STARTCHAR ordmasculine
ENCODING 186
SWIDTH 254 0
DWIDTH 5 0
BBX 4 5 0 5
BITMAP
70
90
90
90
60
ENDCHAR
STARTCHAR guillemotright
ENCODING 187
SWIDTH 659 0
DWIDTH 13 0
BBX 11 9 1 0
BITMAP
8C00
C700
3DE0
0660
0CC0
1980
3600
CC00
9000
ENDCHAR
STARTCHAR onequarter
ENCODING 188
SWIDTH 626 0
DWIDTH 12 0
BBX 11 15 0 0
BITMAP
0400
0400
1400
1400
3400
6400
A800
2800
2A00
0A00
1420
1260
13E0
1020
2020
ENDCHAR
STARTCHAR onehalf
ENCODING 189
SWIDTH 566 0
DWIDTH 11 0
BBX 10 14 0 -1
BITMAP
1200
1200
1400
3400
5400
9480
2980
2840
2840
0840
1080
1680
17C0
2000
ENDCHAR
STARTCHAR threequarters
ENCODING 190
SWIDTH 566 0
DWIDTH 11 0
BBX 10 15 0 -1
BITMAP
0200
0200
0200
E400
2400
6400
1600
9A00
7A40
0A40
0A40
11C0
1040
1040
2000
ENDCHAR
STARTCHAR questiondown
ENCODING 191
SWIDTH 272 0
DWIDTH 5 0
BBX 5 14 0 0
BITMAP
40
00
00
00
00
70
10
30
20
40
40
C0
40
38
ENDCHAR
STARTCHAR Agrave
ENCODING 192
SWIDTH 562 0
DWIDTH 11 0
BBX 10 18 0 0
BITMAP
1000
0C00
0200
0000
1E00
2100
4080
4080
4080
4040
4040
4040
FFC0
4040
4040
4040
4040
4040
ENDCHAR
STARTCHAR Aacute
ENCODING 193
SWIDTH 562 0
DWIDTH 11 0
BBX 10 17 0 0
BITMAP
0C00
1000
2000
1E00
2100
4080
4080
4080
4040
4040
4040
FFC0
4040
4040
4040
4040
4040
ENDCHAR
STARTCHAR Acircumflex
ENCODING 194
SWIDTH 562 0
DWIDTH 11 0
BBX 10 19 0 0
BITMAP
0800
0C00
1E00
3200
0000
1E00
2100
4080
4080
4080
4040
4040
4040
FFC0
4040
4040
4040
4040
4040
ENDCHAR
STARTCHAR Atilde
ENCODING 195
SWIDTH 562 0
DWIDTH 11 0
BBX 10 17 0 0
BITMAP
3900
4600
0000
1E00
2100
4080
4080
4080
4040
4040
4040
FFC0
4040
4040
4040
4040
4040
ENDCHAR
STARTCHAR Adieresis
ENCODING 196
SWIDTH 562 0
DWIDTH 11 0
BBX 10 17 0 0
BITMAP
1200
1A00
0000
1E00
2100
4080
4080
4080
4040
4040
4040
FFC0
4040
4040
4040
4040
4040
ENDCHAR
STARTCHAR Aring
ENCODING 197
SWIDTH 562 0
DWIDTH 11 0
BBX 10 17 0 0
BITMAP
1C00
1200
0C00
1600
2100
4080
4080
4080
4040
4040
4040
FFC0
4040
4040
4040
4040
4040
ENDCHAR
STARTCHAR AE
ENCODING 198
SWIDTH 960 0
DWIDTH 18 0
BBX 18 14 0 0
BITMAP
1E0000
210000
40FF80
40C0C0
40C000
404000
404080
407F00
FFC000
404000
404000
404000
4041C0
407F80
ENDCHAR
STARTCHAR Ccedilla
ENCODING 199
SWIDTH 515 0
DWIDTH 10 0
BBX 9 18 0 -6
BITMAP
0E00
1B00
2200
4000
4000
8000
8000
8000
8000
4000
6380
3C00
1000
1000
0E00
0200
3200
0C00
ENDCHAR
STARTCHAR Egrave
ENCODING 200
SWIDTH 524 0
DWIDTH 10 0
BBX 9 16 0 0
BITMAP
1000
0C00
0400
0000
7F00
4080
4000
4000
4100
FE00
4000
8000
8000
8000
8180
7F00
ENDCHAR
STARTCHAR Eacute
ENCODING 201
SWIDTH 524 0
DWIDTH 10 0
BBX 9 15 0 0
BITMAP
0C00
1800
1000
7F00
4080
4000
4000
4100
FE00
4000
8000
8000
8000
8180
7F00
ENDCHAR
STARTCHAR Ecircumflex
ENCODING 202
SWIDTH 524 0
DWIDTH 10 0
BBX 9 17 0 0
BITMAP
0400
0C00
1E00
3300
0000
7F00
4080
4000
4000
4100
FE00
4000
8000
8000
8000
8180
7F00
ENDCHAR
STARTCHAR Edieresis
ENCODING 203
SWIDTH 524 0
DWIDTH 10 0
BBX 9 15 0 0
BITMAP
1200
3600
0000
7F00
4080
4000
4000
4100
FE00
4000
8000
8000
8000
8180
7F00
ENDCHAR
STARTCHAR Igrave
ENCODING 204
SWIDTH 167 0
DWIDTH 3 0
BBX 3 15 0 0
BITMAP
80
C0
40
00
80
80
40
40
40
40
40
60
20
20
20
ENDCHAR
STARTCHAR Iacute
ENCODING 205
SWIDTH 167 0
DWIDTH 3 0
BBX 3 14 0 0
BITMAP
40
80
80
80
80
40
40
40
40
40
60
20
20
20
ENDCHAR
STARTCHAR Icircumflex
ENCODING 206
SWIDTH 167 0
DWIDTH 3 0
BBX 5 17 -1 0
BITMAP
20
30
58
C8
00
00
40
40
20
20
20
20
20
30
10
10
10
ENDCHAR
STARTCHAR Idieresis
ENCODING 207
SWIDTH 167 0
DWIDTH 3 0
BBX 5 13 -2 0
BITMAP
D8
D8
20
20
10
10
10
10
10
18
08
08
08
ENDCHAR
STARTCHAR Eth
ENCODING 208
SWIDTH 741 0
DWIDTH 14 0
BBX 14 12 0 0
BITMAP
7E00
87C0
0260
0210
0208
07C8
0A0C
020C
0308
0318
0830
07E0
ENDCHAR
STARTCHAR Ntilde
ENCODING 209
SWIDTH 609 0
DWIDTH 12 0
BBX 10 13 1 0
BITMAP
3900
4600
0000
8000
8180
8080
C080
C040
E040
A040
9040
8D80
8700
ENDCHAR
STARTCHAR Ograve
ENCODING 210
SWIDTH 609 0
DWIDTH 12 0
BBX 11 14 0 0
BITMAP
0800
0600
0200
0000
0000
3E00
4300
80C0
8040
8020
4020
4020
30C0
1F00
ENDCHAR
STARTCHAR Oacute
ENCODING 211
SWIDTH 609 0
DWIDTH 12 0
BBX 11 13 0 0
BITMAP
0600
0C00
1000
0000
3E00
4300
80C0
8040
8020
4020
4020
30C0
1F00
ENDCHAR
STARTCHAR Ocircumflex
ENCODING 212
SWIDTH 609 0
DWIDTH 12 0
BBX 11 15 0 0
BITMAP
0800
1C00
1400
2200
0000
0000
3E00
4300
80C0
8040
8020
4020
4020
30C0
1F00
ENDCHAR
STARTCHAR Otilde
ENCODING 213
SWIDTH 609 0
DWIDTH 12 0
BBX 11 12 0 0
BITMAP
3900
4600
0000
3E00
4300
80C0
8040
8020
4020
4020
30C0
1F00
ENDCHAR
STARTCHAR Odieresis
ENCODING 214
SWIDTH 609 0
DWIDTH 12 0
BBX 11 13 0 0
BITMAP
0900
1B00
0000
0000
3E00
4300
80C0
8040
8020
4020
4020
30C0
1F00
ENDCHAR
STARTCHAR multiply
ENCODING 215
SWIDTH 448 0
DWIDTH 9 0
BBX 6 5 1 1
BITMAP
8C
70
30
58
C8
ENDCHAR
STARTCHAR Oslash
ENCODING 216
SWIDTH 609 0
DWIDTH 12 0
BBX 11 14 0 -2
BITMAP
0100
0100
0200
3E00
4300
84C0
8440
8420
4820
4820
38C0
1F00
1000
2000
ENDCHAR
STARTCHAR Ugrave
ENCODING 217
SWIDTH 571 0
DWIDTH 11 0
BBX 10 14 1 0
BITMAP
1000
0800
0400
0000
8100
8100
8100
8100
8100
8100
8180
C380
66C0
3800
ENDCHAR
STARTCHAR Uacute
ENCODING 218
SWIDTH 571 0
DWIDTH 11 0
BBX 10 13 1 0
BITMAP
0C00
1000
2000
8100
8100
8100
8100
8100
8100
8180
C380
66C0
3800
ENDCHAR
STARTCHAR Ucircumflex
ENCODING 219
SWIDTH 571 0
DWIDTH 11 0
BBX 10 17 1 0
BITMAP
0800
0C00
1600
2200
0000
0000
0000
8100
8100
8100
8100
8100
8100
8180
C380
66C0
3800
ENDCHAR
STARTCHAR Udieresis
ENCODING 220
SWIDTH 571 0
DWIDTH 11 0
BBX 10 13 1 0
BITMAP
3600
3600
0000
8100
8100
8100
8100
8100
8100
8180
C380
66C0
3800
ENDCHAR
STARTCHAR Yacute
ENCODING 221
SWIDTH 403 0
DWIDTH 8 0
BBX 7 15 0 0
BITMAP
04
08
10
82
42
62
32
1E
04
04
08
08
08
08
08
ENDCHAR
STARTCHAR Thorn
ENCODING 222
SWIDTH 497 0
DWIDTH 9 0
BBX 8 15 1 -3
BITMAP
80
80
80
80
80
80
FC
82
81
81
E3
BE
80
80
C0
ENDCHAR
STARTCHAR germandbls
ENCODING 223
SWIDTH 590 0
DWIDTH 11 0
BBX 10 16 1 -3
BITMAP
F000
8C00
8400
8400
9800
B800
8E00
8100
8080
8040
8040
5F80
5800
4000
C000
4000
ENDCHAR
STARTCHAR agrave
ENCODING 224
SWIDTH 505 0
DWIDTH 10 0
BBX 9 13 0 0
BITMAP
1000
0800
0400
0000
1C00
0200
0100
3D00
6380
8180
8080
6180
3F00
ENDCHAR
STARTCHAR aacute
ENCODING 225
SWIDTH 505 0
DWIDTH 10 0
BBX 9 13 0 0
BITMAP
0C00
1800
2000
0000
1C00
0200
0100
3D00
6380
8180
8080
6180
3F00
ENDCHAR
STARTCHAR acircumflex
ENCODING 226
SWIDTH 505 0
DWIDTH 10 0
BBX 9 14 0 0
BITMAP
0800
0C00
1E00
3200
0000
1C00
0200
0100
3D00
6380
8180
8080
6180
3F00
ENDCHAR
STARTCHAR atilde
ENCODING 227
SWIDTH 505 0
DWIDTH 10 0
BBX 9 13 0 0
BITMAP
3B00
4600
0000
0000
1C00
0200
0100
3D00
6380
8180
8080
6180
3F00
ENDCHAR
STARTCHAR adieresis
ENCODING 228
SWIDTH 505 0
DWIDTH 10 0
BBX 9 12 0 0
BITMAP
1200
3600
0000
1C00
0200
0100
3D00
6380
8180
8080
6180
3F00
ENDCHAR
STARTCHAR aring
ENCODING 229
SWIDTH 505 0
DWIDTH 10 0
BBX 9 12 0 0
BITMAP
1C00
1600
0C00
1C00
0200
0100
3D00
6380
8180
8080
6180
3F00
ENDCHAR
STARTCHAR ae
ENCODING 230
SWIDTH 881 0
DWIDTH 17 0
BBX 17 9 0 0
BITMAP
1C7C00
02C400
018400
3D8400
63F800
818000
808000
61C000
3F3F80
ENDCHAR
STARTCHAR ccedilla
ENCODING 231
SWIDTH 449 0
DWIDTH 9 0
BBX 8 14 0 -6
BITMAP
3E
42
44
80
80
40
60
3F
10
10
0E
02
32
0C
ENDCHAR
STARTCHAR egrave
ENCODING 232
SWIDTH 515 0
DWIDTH 10 0
BBX 9 13 0 0
BITMAP
2000
1800
0800
1C00
2600
4200
4200
8400
B800
4000
4000
3000
1F80
ENDCHAR
STARTCHAR eacute
ENCODING 233
SWIDTH 515 0
DWIDTH 10 0
BBX 9 13 0 0
BITMAP
0C00
1000
2000
1C00
2600
4200
4200
8400
B800
4000
4000
3000
1F80
ENDCHAR
STARTCHAR ecircumflex
ENCODING 234
SWIDTH 515 0
DWIDTH 10 0
BBX 9 14 0 0
BITMAP
0400
0C00
1E00
3200
1C00
2600
4200
4200
8400
B800
4000
4000
3000
1F80
ENDCHAR
STARTCHAR edieresis
ENCODING 235
SWIDTH 515 0
DWIDTH 10 0
BBX 9 12 0 0
BITMAP
3600
3600
1C00
2600
4200
4200
8400
B800
4000
4000
3000
1F80
ENDCHAR
STARTCHAR igrave
ENCODING 236
SWIDTH 174 0
DWIDTH 3 0
BBX 3 11 0 0
BITMAP
C0
20
00
40
40
40
40
60
60
20
20
ENDCHAR
STARTCHAR iacute
ENCODING 237
SWIDTH 174 0
DWIDTH 3 0
BBX 3 12 0 0
BITMAP
20
C0
80
00
40
40
40
40
60
60
20
20
ENDCHAR
STARTCHAR icircumflex
ENCODING 238
SWIDTH 174 0
DWIDTH 3 0
BBX 5 14 -1 0
BITMAP
20
30
78
C8
00
00
20
20
20
20
30
30
10
10
ENDCHAR
STARTCHAR idieresis
ENCODING 239
SWIDTH 174 0
DWIDTH 3 0
BBX 5 11 -1 0
BITMAP
D8
D8
00
20
20
20
20
30
30
10
10
ENDCHAR
STARTCHAR eth
ENCODING 240
SWIDTH 407 0
DWIDTH 8 0
BBX 8 10 0 0
BITMAP
70
9B
1E
36
1A
66
42
82
42
3C
ENDCHAR
STARTCHAR ntilde
ENCODING 241
SWIDTH 459 0
DWIDTH 9 0
BBX 7 12 1 0
BITMAP
E4
98
00
00
38
C4
86
82
82
82
82
42
ENDCHAR
STARTCHAR ograve
ENCODING 242
SWIDTH 487 0
DWIDTH 9 0
BBX 9 11 0 0
BITMAP
1000
0C00
0400
1E00
6300
4100
8080
8080
4100
6300
3C00
ENDCHAR
STARTCHAR oacute
ENCODING 243
SWIDTH 487 0
DWIDTH 9 0
BBX 9 11 0 0
BITMAP
0C00
1000
2000
1E00
6300
4100
8080
8080
4100
6300
3C00
ENDCHAR
STARTCHAR ocircumflex
ENCODING 244
SWIDTH 487 0
DWIDTH 9 0
BBX 9 13 0 0
BITMAP
0800
0C00
1600
2200
0000
1E00
6300
4100
8080
8080
4100
6300
3C00
ENDCHAR
STARTCHAR otilde
ENCODING 245
SWIDTH 487 0
DWIDTH 9 0
BBX 9 10 0 0
BITMAP
3900
4600
1E00
6300
4100
8080
8080
4100
6300
3C00
ENDCHAR
STARTCHAR odieresis
ENCODING 246
SWIDTH 487 0
DWIDTH 9 0
BBX 9 10 0 0
BITMAP
3600
3600
1E00
6300
4100
8080
8080
4100
6300
3C00
ENDCHAR
STARTCHAR divide
ENCODING 247
SWIDTH 335 0
DWIDTH 6 0
BBX 5 5 1 1
BITMAP
20
00
F8
00
20
ENDCHAR
STARTCHAR oslash
ENCODING 248
SWIDTH 487 0
DWIDTH 9 0
BBX 9 9 0 0
BITMAP
0200
1E00
2700
4500
8880
9880
5100
6300
7E00
ENDCHAR
STARTCHAR ugrave
ENCODING 249
SWIDTH 501 0
DWIDTH 10 0
BBX 9 13 0 0
BITMAP
2000
1000
0800
0000
8000
8100
8100
8100
4100
4300
2480
1880
0080
ENDCHAR
STARTCHAR uacute
ENCODING 250
SWIDTH 501 0
DWIDTH 10 0
BBX 9 12 0 0
BITMAP
0C00
1800
2000
8000
8100
8100
8100
4100
4300
2480
1880
0080
ENDCHAR
STARTCHAR ucircumflex
ENCODING 251
SWIDTH 501 0
DWIDTH 10 0
BBX 9 14 0 0
BITMAP
0800
0C00
1E00
3200
0000
8000
8100
8100
8100
4100
4300
2480
1880
0080
ENDCHAR
STARTCHAR udieresis
ENCODING 252
SWIDTH 501 0
DWIDTH 10 0
BBX 9 12 0 0
BITMAP
3600
3600
0000
8000
8100
8100
8100
4100
4300
2480
1880
0080
ENDCHAR
STARTCHAR yacute
ENCODING 253
SWIDTH 487 0
DWIDTH 9 0
BBX 9 21 0 -9
BITMAP
0C00
1000
2000
0000
8100
8100
8100
4180
4180
6180
3680
0880
0080
0080
0080
0080
0080
4080
4100
3100
1E00
ENDCHAR
STARTCHAR thorn
ENCODING 254
SWIDTH 520 0
DWIDTH 10 0
BBX 9 14 1 -4
BITMAP
8000
8000
8000
BE00
C300
8100
8100
C180
FE00
8000
8000
8000
8000
8000
ENDCHAR
STARTCHAR ydieresis
ENCODING 255
SWIDTH 487 0
DWIDTH 9 0
BBX 9 20 0 -9
BITMAP
3600
3600
0000
8100
8100
8100
4180
4180
6180
3680
0880
0080
0080
0080
0080
0080
4080
4100
3100
1E00
ENDCHAR
STARTCHAR Amacron
ENCODING 256
SWIDTH 562 0
DWIDTH 11 0
BBX 10 17 0 0
BITMAP
3E00
0000
0000
1E00
2100
4080
4080
4080
4040
4040
4040
FFC0
4040
4040
4040
4040
4040
ENDCHAR
STARTCHAR amacron
ENCODING 257
SWIDTH 505 0
DWIDTH 10 0
BBX 9 12 0 0
BITMAP
3E00
0000
0000
1C00
0200
0100
3D00
6380
8180
8080
6180
3F00
ENDCHAR
STARTCHAR Abreve
ENCODING 258
SWIDTH 562 0
DWIDTH 11 0
BBX 10 18 0 0
BITMAP
0200
0A00
0400
0000
1E00
2100
4080
4080
4080
4040
4040
4040
FFC0
4040
4040
4040
4040
4040
ENDCHAR
STARTCHAR abreve
ENCODING 259
SWIDTH 505 0
DWIDTH 10 0
BBX 9 13 0 0
BITMAP
0400
1400
0800
0000
1C00
0200
0100
3D00
6380
8180
8080
6180
3F00
ENDCHAR
STARTCHAR Aogonek
ENCODING 260
SWIDTH 562 0
DWIDTH 11 0
BBX 11 17 0 -3
BITMAP
1E00
2100
4080
4080
4080
4040
4040
4040
FFC0
4040
4040
4040
4040
40C0
0100
0100
00E0
ENDCHAR
STARTCHAR aogonek
ENCODING 261
SWIDTH 505 0
DWIDTH 10 0
BBX 9 11 0 -2
BITMAP
1C00
0200
0100
3D00
6380
8180
8080
6180
3F00
0400
0780
ENDCHAR
STARTCHAR Cacute
ENCODING 262
SWIDTH 515 0
DWIDTH 10 0
BBX 9 15 0 0
BITMAP
0600
0C00
1000
0E00
1B00
2200
4000
4000
8000
8000
8000
8000
4000
6380
3C00
ENDCHAR
STARTCHAR cacute
ENCODING 263
SWIDTH 449 0
DWIDTH 9 0
BBX 8 12 0 0
BITMAP
0C
18
10
00
3C
62
42
80
80
40
60
3F
ENDCHAR
STARTCHAR Ccircumflex
ENCODING 264
SWIDTH 515 0
DWIDTH 10 0
BBX 9 17 0 0
BITMAP
0400
0C00
1E00
3200
0000
0E00
1B00
2200
4000
4000
8000
8000
8000
8000
4000
6380
3C00
ENDCHAR
STARTCHAR ccircumflex
ENCODING 265
SWIDTH 449 0
DWIDTH 9 0
BBX 8 14 0 0
BITMAP
08
0C
16
22
00
00
3C
62
42
80
80
40
60
3F
ENDCHAR
STARTCHAR Cdotaccent
ENCODING 266
SWIDTH 515 0
DWIDTH 10 0
BBX 9 14 0 0
BITMAP
0C00
0000
0E00
1B00
2200
4000
4000
8000
8000
8000
8000
4000
6380
3C00
ENDCHAR
STARTCHAR cdotaccent
ENCODING 267
SWIDTH 449 0
DWIDTH 9 0
BBX 8 10 0 0
BITMAP
08
00
3C
62
42
80
80
40
60
3F
ENDCHAR
STARTCHAR Ccaron
ENCODING 268
SWIDTH 515 0
DWIDTH 10 0
BBX 9 16 0 0
BITMAP
0100
1F00
0400
0000
0E00
1B00
2200
4000
4000
8000
8000
8000
8000
4000
6380
3C00
ENDCHAR
STARTCHAR ccaron
ENCODING 269
SWIDTH 449 0
DWIDTH 9 0
BBX 8 12 0 0
BITMAP
02
3C
08
00
3C
62
42
80
80
40
60
3F
ENDCHAR
STARTCHAR Dcaron
ENCODING 270
SWIDTH 741 0
DWIDTH 14 0
BBX 14 15 0 0
BITMAP
0080
0FC0
0100
7E00
87C0
0260
0210
0208
0208
020C
020C
0308
0318
0830
07E0
ENDCHAR
STARTCHAR dcaron
ENCODING 271
SWIDTH 582 0
DWIDTH 11 0
BBX 11 14 0 0
BITMAP
0240
0360
0120
0120
01A0
3980
6780
4380
C180
C180
C180
4280
6E80
3840
ENDCHAR
STARTCHAR Dcroat
ENCODING 272
SWIDTH 741 0
DWIDTH 14 0
BBX 14 12 0 0
BITMAP
7E00
87C0
0260
0210
0208
0308
0F8C
020C
0308
0318
0830
07E0
ENDCHAR
STARTCHAR dcroat
ENCODING 273
SWIDTH 524 0
DWIDTH 10 0
BBX 10 14 0 0
BITMAP
0200
0300
0300
0FC0
0180
1180
7D80
4380
C180
C180
C180
4380
6680
3840
ENDCHAR
STARTCHAR Emacron
ENCODING 274
SWIDTH 524 0
DWIDTH 10 0
BBX 9 14 0 0
BITMAP
3E00
0000
7F00
4080
4000
4000
4100
FE00
4000
8000
8000
8000
8180
7F00
ENDCHAR
STARTCHAR emacron
ENCODING 275
SWIDTH 515 0
DWIDTH 10 0
BBX 9 12 0 0
BITMAP
3E00
0000
1C00
2600
4200
4200
8400
B800
4000
4000
3000
1F80
ENDCHAR
STARTCHAR Ebreve
ENCODING 276
SWIDTH 524 0
DWIDTH 10 0
BBX 9 15 0 0
BITMAP
0400
1600
0800
7F00
4080
4000
4000
4100
FE00
4000
8000
8000
8000
8180
7F00
ENDCHAR
STARTCHAR ebreve
ENCODING 277
SWIDTH 515 0
DWIDTH 10 0
BBX 9 13 0 0
BITMAP
0400
0A00
0400
1C00
2600
4200
4200
8400
B800
4000
4000
3000
1F80
ENDCHAR
STARTCHAR Edotaccent
ENCODING 278
SWIDTH 524 0
DWIDTH 10 0
BBX 9 14 0 0
BITMAP
0800
0000
7F00
4080
4000
4000
4100
FE00
4000
8000
8000
8000
8180
7F00
ENDCHAR
STARTCHAR edotaccent
ENCODING 279
SWIDTH 515 0
DWIDTH 10 0
BBX 9 12 0 0
BITMAP
0800
0000
1C00
2600
4200
4200
8400
B800
4000
4000
3000
1F80
ENDCHAR
STARTCHAR Eogonek
ENCODING 280
SWIDTH 524 0
DWIDTH 10 0
BBX 9 15 0 -3
BITMAP
7F00
4080
4000
4000
4100
FE00
4000
8000
8000
8000
8180
7F00
0400
0400
0380
ENDCHAR
STARTCHAR eogonek
ENCODING 281
SWIDTH 515 0
DWIDTH 10 0
BBX 9 13 0 -3
BITMAP
1C00
2600
4200
4200
8400
B800
4000
4000
3000
1F80
0400
0400
0380
ENDCHAR
STARTCHAR Ecaron
ENCODING 282
SWIDTH 524 0
DWIDTH 10 0
BBX 9 15 0 0
BITMAP
0200
3F00
0400
7F00
4080
4000
4000
4100
FE00
4000
8000
8000
8000
8180
7F00
ENDCHAR
STARTCHAR ecaron
ENCODING 283
SWIDTH 515 0
DWIDTH 10 0
BBX 9 13 0 0
BITMAP
0200
3E00
0400
1C00
2600
4200
4200
8400
B800
4000
4000
3000
1F80
ENDCHAR
STARTCHAR Gcircumflex
ENCODING 284
SWIDTH 571 0
DWIDTH 11 0
BBX 10 16 1 -1
BITMAP
0200
0600
0F00
1980
0000
0780
1880
2000
4000
8900
8F80
8080
8080
C380
7C80
00C0
ENDCHAR
STARTCHAR gcircumflex
ENCODING 285
SWIDTH 366 0
DWIDTH 7 0
BBX 10 23 -3 -9
BITMAP
0200
0300
0580
0880
0000
0000
0300
0480
0880
0880
10C0
18C0
0FC0
06C0
0040
0040
0040
0040
4040
8040
4040
3880
0F80
ENDCHAR
STARTCHAR Gbreve
ENCODING 286
SWIDTH 571 0
DWIDTH 11 0
BBX 10 14 1 -1
BITMAP
0400
1400
0800
0780
1880
2000
4000
8900
8F80
8080
8080
C380
7C80
00C0
ENDCHAR
STARTCHAR gbreve
ENCODING 287
SWIDTH 366 0
DWIDTH 7 0
BBX 10 20 -3 -9
BITMAP
0100
0500
0200
0300
0480
0880
0880
10C0
18C0
0FC0
06C0
0040
0040
0040
0040
4040
8040
4040
3880
0F80
ENDCHAR
STARTCHAR Gdotaccent
ENCODING 288
SWIDTH 571 0
DWIDTH 11 0
BBX 10 13 1 -1
BITMAP
0400
0000
0780
1880
2000
4000
8900
8F80
8080
8080
C380
7C80
00C0
ENDCHAR
STARTCHAR gdotaccent
ENCODING 289
SWIDTH 366 0
DWIDTH 7 0
BBX 10 19 -3 -9
BITMAP
0200
0000
0300
0480
0880
0880
10C0
18C0
0FC0
06C0
0040
0040
0040
0040
4040
8040
4040
3880
0F80
ENDCHAR
STARTCHAR Gcommaaccent
ENCODING 290
SWIDTH 571 0
DWIDTH 11 0
BBX 10 16 1 -6
BITMAP
0780
1880
2000
4000
8900
8F80
8080
8080
C380
7C80
00C0
0000
0800
0800
0800
0800
ENDCHAR
STARTCHAR gcommaaccent
ENCODING 291
SWIDTH 366 0
DWIDTH 7 0
BBX 10 26 -3 -9
BITMAP
0200
0200
0200
0200
0200
0000
0000
0000
0000
0300
0480
0880
0880
10C0
18C0
0FC0
06C0
0040
0040
0040
0040
4040
8040
4040
3880
0F80
ENDCHAR
STARTCHAR Hcircumflex
ENCODING 292
SWIDTH 524 0
DWIDTH 10 0
BBX 9 18 0 0
BITMAP
0400
0C00
1E00
3300
0000
0080
8080
4080
4080
4080
4180
4680
7880
E080
4080
2080
2080
2080
ENDCHAR
STARTCHAR hcircumflex
ENCODING 293
SWIDTH 427 0
DWIDTH 8 0
BBX 7 15 0 0
BITMAP
08
0C
96
A2
80
40
58
7C
42
42
42
42
42
42
42
ENDCHAR
STARTCHAR hbar
ENCODING 295
SWIDTH 427 0
DWIDTH 8 0
BBX 9 13 -2 0
BITMAP
2000
2000
3800
7800
9600
1F00
1080
1080
1080
1080
1080
1080
1080
ENDCHAR
STARTCHAR Itilde
ENCODING 296
SWIDTH 167 0
DWIDTH 3 0
BBX 7 13 -2 0
BITMAP
72
8C
20
20
10
10
10
10
10
18
08
08
08
ENDCHAR
STARTCHAR itilde
ENCODING 297
SWIDTH 174 0
DWIDTH 3 0
BBX 7 12 -1 0
BITMAP
F6
88
00
00
20
20
20
20
30
30
10
10
ENDCHAR
STARTCHAR imacron
ENCODING 299
SWIDTH 174 0
DWIDTH 3 0
BBX 5 11 -1 0
BITMAP
F8
00
00
20
20
20
20
30
30
10
10
ENDCHAR
STARTCHAR Ibreve
ENCODING 300
SWIDTH 167 0
DWIDTH 3 0
BBX 4 15 0 0
BITMAP
20
B0
40
00
80
80
40
40
40
40
40
60
20
20
20
ENDCHAR
STARTCHAR ibreve
ENCODING 301
SWIDTH 174 0
DWIDTH 3 0
BBX 3 12 0 0
BITMAP
40
A0
40
00
40
40
40
40
60
60
20
20
ENDCHAR
STARTCHAR Iogonek
ENCODING 302
SWIDTH 167 0
DWIDTH 3 0
BBX 4 14 0 -3
BITMAP
80
80
40
40
40
40
40
60
20
20
60
80
80
70
ENDCHAR
STARTCHAR iogonek
ENCODING 303
SWIDTH 174 0
DWIDTH 3 0
BBX 3 14 0 -3
BITMAP
C0
00
00
40
40
40
40
60
60
20
60
80
80
60
ENDCHAR
STARTCHAR Idotaccent
ENCODING 304
SWIDTH 167 0
DWIDTH 3 0
BBX 3 14 0 0
BITMAP
80
00
00
80
80
40
40
40
40
40
60
20
20
20
ENDCHAR
STARTCHAR dotlessi
ENCODING 305
SWIDTH 174 0
DWIDTH 3 0
BBX 2 8 1 0
BITMAP
80
80
80
80
C0
C0
40
40
ENDCHAR
STARTCHAR Jcircumflex
ENCODING 308
SWIDTH 439 0
DWIDTH 8 0
BBX 9 18 0 0
BITMAP
0200
0300
0580
0880
0000
0200
0200
0200
0300
0100
0100
8100
8100
4100
2100
2100
1900
0600
ENDCHAR
STARTCHAR jcircumflex
ENCODING 309
SWIDTH 200 0
DWIDTH 4 0
BBX 6 23 -2 -9
BITMAP
08
18
3C
64
00
00
10
08
08
08
08
0C
0C
04
04
04
84
84
C4
44
24
1C
08
ENDCHAR
STARTCHAR Kcommaaccent
ENCODING 310
SWIDTH 468 0
DWIDTH 9 0
BBX 8 17 0 -6
BITMAP
86
88
98
70
60
40
60
50
4C
46
41
00
00
08
08
08
08
ENDCHAR
STARTCHAR kcommaaccent
ENCODING 311
SWIDTH 403 0
DWIDTH 8 0
BBX 8 18 0 -6
BITMAP
80
80
80
84
48
50
70
60
60
60
5C
47
00
00
10
10
10
10
ENDCHAR
STARTCHAR Lacute
ENCODING 313
SWIDTH 346 0
DWIDTH 7 0
BBX 6 13 0 0
BITMAP
0C
10
20
40
40
40
40
40
80
80
80
40
3C
ENDCHAR
STARTCHAR lacute
ENCODING 314
SWIDTH 120 0
DWIDTH 2 0
BBX 3 14 0 0
BITMAP
60
80
80
80
40
40
40
C0
C0
C0
40
40
40
40
ENDCHAR
STARTCHAR Lcommaaccent
ENCODING 315
SWIDTH 346 0
DWIDTH 7 0
BBX 6 16 0 -6
BITMAP
40
40
40
40
40
80
80
80
40
3C
00
00
10
30
10
30
ENDCHAR
STARTCHAR lcommaaccent
ENCODING 316
SWIDTH 120 0
DWIDTH 2 0
BBX 2 17 0 -6
BITMAP
80
40
40
40
C0
C0
C0
40
40
40
40
00
00
C0
40
40
80
ENDCHAR
STARTCHAR Lcaron
ENCODING 317
SWIDTH 346 0
DWIDTH 7 0
BBX 6 14 0 0
BITMAP
10
10
10
18
48
40
40
40
40
80
80
80
40
3C
ENDCHAR
STARTCHAR lcaron
ENCODING 318
SWIDTH 222 0
DWIDTH 4 0
BBX 4 14 0 0
BITMAP
20
10
10
90
50
40
40
C0
C0
C0
40
40
40
40
ENDCHAR
STARTCHAR Ldot
ENCODING 319
SWIDTH 346 0
DWIDTH 7 0
BBX 6 10 0 0
BITMAP
40
40
40
40
60
B0
90
80
40
3C
ENDCHAR
STARTCHAR ldot
ENCODING 320
SWIDTH 333 0
DWIDTH 6 0
BBX 6 11 0 0
BITMAP
80
40
40
40
C0
D0
DC
48
40
40
40
ENDCHAR
STARTCHAR Lslash
ENCODING 321
SWIDTH 346 0
DWIDTH 7 0
BBX 7 10 0 0
BITMAP
20
20
20
60
60
70
C0
40
30
1E
ENDCHAR
STARTCHAR lslash
ENCODING 322
SWIDTH 120 0
DWIDTH 2 0
BBX 4 11 -1 0
BITMAP
20
20
20
20
30
60
A0
20
20
20
20
ENDCHAR
STARTCHAR Nacute
ENCODING 323
SWIDTH 609 0
DWIDTH 12 0
BBX 10 13 1 0
BITMAP
0C00
1800
2000
8000
8180
8080
C080
C040
E040
A040
9040
8D80
8700
ENDCHAR
STARTCHAR nacute
ENCODING 324
SWIDTH 459 0
DWIDTH 9 0
BBX 7 12 1 0
BITMAP
10
20
40
00
38
C4
86
82
82
82
82
42
ENDCHAR
STARTCHAR Ncommaaccent
ENCODING 325
SWIDTH 609 0
DWIDTH 12 0
BBX 10 16 1 -6
BITMAP
8000
8180
8080
C080
C040
E040
A040
9040
8D80
8700
0000
0000
0800
0800
0800
0800
ENDCHAR
STARTCHAR ncommaaccent
ENCODING 326
SWIDTH 459 0
DWIDTH 9 0
BBX 7 14 1 -6
BITMAP
38
C4
86
82
82
82
82
42
00
00
10
10
10
10
ENDCHAR
STARTCHAR Ncaron
ENCODING 327
SWIDTH 609 0
DWIDTH 12 0
BBX 10 15 1 0
BITMAP
0200
3E00
0800
0000
0000
8000
8180
8080
C080
C040
E040
A040
9040
8D80
8700
ENDCHAR
STARTCHAR ncaron
ENCODING 328
SWIDTH 459 0
DWIDTH 9 0
BBX 7 12 1 0
BITMAP
04
78
10
00
38
C4
86
82
82
82
82
42
ENDCHAR
STARTCHAR napostrophe
ENCODING 329
SWIDTH 459 0
DWIDTH 9 0
BBX 7 13 1 0
BITMAP
40
40
40
40
00
38
C4
86
82
82
82
82
42
ENDCHAR
STARTCHAR Omacron
ENCODING 332
SWIDTH 609 0
DWIDTH 12 0
BBX 11 13 0 0
BITMAP
1F00
0000
0000
0000
3E00
4300
80C0
8040
8020
4020
4020
30C0
1F00
ENDCHAR
STARTCHAR omacron
ENCODING 333
SWIDTH 487 0
DWIDTH 9 0
BBX 9 10 0 0
BITMAP
3E00
0000
1E00
6300
4100
8080
8080
4100
6300
3C00
ENDCHAR
STARTCHAR Obreve
ENCODING 334
SWIDTH 609 0
DWIDTH 12 0
BBX 11 13 0 0
BITMAP
0200
0B00
0400
0000
3E00
4300
80C0
8040
8020
4020
4020
30C0
1F00
ENDCHAR
STARTCHAR obreve
ENCODING 335
SWIDTH 487 0
DWIDTH 9 0
BBX 9 12 0 0
BITMAP
0800
2C00
1000
0000
1E00
6300
4100
8080
8080
4100
6300
3C00
ENDCHAR
STARTCHAR Ohungarumlaut
ENCODING 336
SWIDTH 609 0
DWIDTH 12 0
BBX 11 14 0 0
BITMAP
0800
0F00
1400
0000
0000
3E00
4300
80C0
8040
8020
4020
4020
30C0
1F00
ENDCHAR
STARTCHAR ohungarumlaut
ENCODING 337
SWIDTH 487 0
DWIDTH 9 0
BBX 9 11 0 0
BITMAP
1000
3600
2800
1E00
6300
4100
8080
8080
4100
6300
3C00
ENDCHAR
STARTCHAR OE
ENCODING 338
SWIDTH 848 0
DWIDTH 16 0
BBX 16 9 0 0
BITMAP
3DFE
4301
8300
810E
81F0
4100
4100
3300
1EFF
ENDCHAR
STARTCHAR oe
ENCODING 339
SWIDTH 875 0
DWIDTH 17 0
BBX 16 10 0 -1
BITMAP
0078
1EC4
2384
4184
8198
81E0
4180
63C0
3E7F
001C
ENDCHAR
STARTCHAR Racute
ENCODING 340
SWIDTH 579 0
DWIDTH 11 0
BBX 11 16 0 -1
BITMAP
0200
0400
0800
7E00
8180
80C0
2040
21C0
3F00
1000
1800
1C00
1600
1300
1080
0060
ENDCHAR
STARTCHAR racute
ENCODING 341
SWIDTH 346 0
DWIDTH 7 0
BBX 6 12 0 0
BITMAP
18
30
20
18
EC
C0
C0
40
40
40
60
20
ENDCHAR
STARTCHAR Rcommaaccent
ENCODING 342
SWIDTH 579 0
DWIDTH 11 0
BBX 11 18 0 -6
BITMAP
7E00
8180
80C0
2040
21C0
3F00
1000
1800
1C00
1600
1300
1080
0060
0000
0400
0400
0400
0400
ENDCHAR
STARTCHAR rcommaaccent
ENCODING 343
SWIDTH 346 0
DWIDTH 7 0
BBX 6 15 0 -6
BITMAP
18
EC
C0
C0
40
40
40
60
20
00
00
10
30
10
30
ENDCHAR
STARTCHAR Rcaron
ENCODING 344
SWIDTH 579 0
DWIDTH 11 0
BBX 11 17 0 -1
BITMAP
0100
1E00
0400
0000
7E00
8180
80C0
2040
21C0
3F00
1000
1800
1C00
1600
1300
1080
0060
ENDCHAR
STARTCHAR rcaron
ENCODING 345
SWIDTH 346 0
DWIDTH 7 0
BBX 6 12 0 0
BITMAP
04
78
10
18
EC
C0
C0
40
40
40
60
20
ENDCHAR
STARTCHAR Sacute
ENCODING 346
SWIDTH 627 0
DWIDTH 12 0
BBX 11 15 0 0
BITMAP
0200
0400
0800
0000
1FC0
2040
1000
1000
0C00
0300
80C0
8020
4020
2020
1FC0
ENDCHAR
STARTCHAR sacute
ENCODING 347
SWIDTH 514 0
DWIDTH 10 0
BBX 9 13 0 0
BITMAP
0600
0800
1000
0000
1800
6400
4200
4000
3E00
0180
0080
E080
3F00
ENDCHAR
STARTCHAR Scircumflex
ENCODING 348
SWIDTH 627 0
DWIDTH 12 0
BBX 11 17 0 0
BITMAP
0200
0600
0F00
1980
0000
0000
1FC0
2040
1000
1000
0C00
0300
80C0
8020
4020
2020
1FC0
ENDCHAR
STARTCHAR scircumflex
ENCODING 349
SWIDTH 514 0
DWIDTH 10 0
BBX 9 14 0 0
BITMAP
0400
0C00
1E00
3200
0000
1800
6400
4200
4000
3E00
0180
0080
E080
3F00
ENDCHAR
STARTCHAR Scedilla
ENCODING 350
SWIDTH 627 0
DWIDTH 12 0
BBX 11 17 0 -6
BITMAP
1FC0
2040
1000
1000
0C00
0300
80C0
8020
4020
2020
1FC0
0800
0800
0700
0100
1900
0600
ENDCHAR
STARTCHAR scedilla
ENCODING 351
SWIDTH 514 0
DWIDTH 10 0
BBX 9 15 0 -6
BITMAP
1800
6400
4200
4000
3E00
0180
0080
E080
3F00
1000
1000
0E00
0200
3200
0C00
ENDCHAR
STARTCHAR Scaron
ENCODING 352
SWIDTH 627 0
DWIDTH 12 0
BBX 11 15 0 0
BITMAP
0100
1F80
0200
0000
1FC0
2040
1000
1000
0C00
0300
80C0
8020
4020
2020
1FC0
ENDCHAR
STARTCHAR scaron
ENCODING 353
SWIDTH 514 0
DWIDTH 10 0
BBX 9 12 0 0
BITMAP
0200
3E00
0400
1800
6400
4200
4000
3E00
0180
0080
E080
3F00
ENDCHAR
STARTCHAR Tcommaaccent
ENCODING 354
SWIDTH 581 0
DWIDTH 11 0
BBX 13 17 0 -6
BITMAP
FFF0
0218
0200
0200
0200
0200
0200
0300
0100
0100
0180
0000
0000
0100
0100
0100
0100
ENDCHAR
STARTCHAR tcommaaccent
ENCODING 355
SWIDTH 328 0
DWIDTH 6 0
BBX 6 18 0 -6
BITMAP
20
30
30
30
FC
30
30
30
30
10
10
10
00
00
30
10
10
20
ENDCHAR
STARTCHAR Tcaron
ENCODING 356
SWIDTH 581 0
DWIDTH 11 0
BBX 13 15 0 0
BITMAP
0100
1F00
0400
0000
FFF0
0218
0200
0200
0200
0200
0200
0300
0100
0100
0180
ENDCHAR
STARTCHAR tcaron
ENCODING 357
SWIDTH 431 0
DWIDTH 8 0
BBX 8 14 0 0
BITMAP
02
01
21
31
31
30
FC
30
30
30
30
10
10
10
ENDCHAR
STARTCHAR Utilde
ENCODING 360
SWIDTH 571 0
DWIDTH 11 0
BBX 10 13 1 0
BITMAP
7B00
4400
0000
8100
8100
8100
8100
8100
8100
8180
C380
66C0
3800
ENDCHAR
STARTCHAR utilde
ENCODING 361
SWIDTH 501 0
DWIDTH 10 0
BBX 9 12 0 0
BITMAP
3900
2600
0000
8000
8100
8100
8100
4100
4300
2480
1880
0080
ENDCHAR
STARTCHAR Umacron
ENCODING 362
SWIDTH 571 0
DWIDTH 11 0
BBX 10 13 1 0
BITMAP
3E00
0000
0000
8100
8100
8100
8100
8100
8100
8180
C380
66C0
3800
ENDCHAR
STARTCHAR umacron
ENCODING 363
SWIDTH 501 0
DWIDTH 10 0
BBX 9 11 0 0
BITMAP
3E00
0000
8000
8100
8100
8100
4100
4300
2480
1880
0080
ENDCHAR
STARTCHAR Ubreve
ENCODING 364
SWIDTH 571 0
DWIDTH 11 0
BBX 10 13 1 0
BITMAP
0400
1400
0800
8100
8100
8100
8100
8100
8100
8180
C380
66C0
3800
ENDCHAR
STARTCHAR ubreve
ENCODING 365
SWIDTH 501 0
DWIDTH 10 0
BBX 9 12 0 0
BITMAP
0800
3400
0800
8000
8100
8100
8100
4100
4300
2480
1880
0080
ENDCHAR
STARTCHAR Uring
ENCODING 366
SWIDTH 571 0
DWIDTH 11 0
BBX 10 14 1 0
BITMAP
1800
2400
2400
1800
8100
8100
8100
8100
8100
8100
8180
C380
66C0
3800
ENDCHAR
STARTCHAR uring
ENCODING 367
SWIDTH 501 0
DWIDTH 10 0
BBX 9 11 0 0
BITMAP
0C00
3400
9400
8900
8100
8100
4100
4300
2480
1880
0080
ENDCHAR
STARTCHAR Uhungarumlaut
ENCODING 368
SWIDTH 571 0
DWIDTH 11 0
BBX 10 14 1 0
BITMAP
1000
3400
2800
0000
8100
8100
8100
8100
8100
8100
8180
C380
66C0
3800
ENDCHAR
STARTCHAR uhungarumlaut
ENCODING 369
SWIDTH 501 0
DWIDTH 10 0
BBX 9 13 0 0
BITMAP
0800
1A00
1400
0000
8000
8100
8100
8100
4100
4300
2480
1880
0080
ENDCHAR
STARTCHAR Uogonek
ENCODING 370
SWIDTH 571 0
DWIDTH 11 0
BBX 10 13 1 -3
BITMAP
8000
8100
8100
8100
8100
8100
8080
8180
4180
66C0
3900
0100
01C0
ENDCHAR
STARTCHAR uogonek
ENCODING 371
SWIDTH 501 0
DWIDTH 10 0
BBX 10 11 0 -2
BITMAP
8000
8100
8100
8100
4100
4300
6780
3C80
0180
0200
03C0
ENDCHAR
STARTCHAR Wcircumflex
ENCODING 372
SWIDTH 703 0
DWIDTH 13 0
BBX 13 17 0 0
BITMAP
0200
0300
0780
0C80
0000
0000
0000
0000
8030
8010
8010
8418
C408
4608
4608
6910
30E0
ENDCHAR
STARTCHAR wcircumflex
ENCODING 373
SWIDTH 656 0
DWIDTH 12 0
BBX 12 14 0 0
BITMAP
0200
0300
0580
0880
0000
0000
4000
C020
8220
8210
8210
4610
6D30
38E0
ENDCHAR
STARTCHAR Ycircumflex
ENCODING 374
SWIDTH 403 0
DWIDTH 8 0
BBX 7 17 0 0
BITMAP
18
18
3C
64
00
82
42
62
32
1E
04
04
08
08
08
08
08
ENDCHAR
STARTCHAR ycircumflex
ENCODING 375
SWIDTH 487 0
DWIDTH 9 0
BBX 9 23 0 -9
BITMAP
0800
0C00
1600
3200
0000
0000
8100
8100
8100
4180
4180
6180
3680
0880
0080
0080
0080
0080
0080
4080
4100
3100
1E00
ENDCHAR
STARTCHAR Ydieresis
ENCODING 376
SWIDTH 403 0
DWIDTH 8 0
BBX 7 15 0 0
BITMAP
24
6C
00
82
42
62
32
1E
04
04
08
08
08
08
08
ENDCHAR
STARTCHAR Zacute
ENCODING 377
SWIDTH 571 0
DWIDTH 11 0
BBX 11 16 0 0
BITMAP
0600
0C00
0800
0000
7800
C600
0200
0100
0200
0200
3FC0
0400
0800
0800
11E0
1F80
ENDCHAR
STARTCHAR zacute
ENCODING 378
SWIDTH 459 0
DWIDTH 9 0
BBX 8 13 0 0
BITMAP
0C
10
20
38
C4
04
04
04
7E
10
20
23
3E
ENDCHAR
STARTCHAR Zdotaccent
ENCODING 379
SWIDTH 571 0
DWIDTH 11 0
BBX 11 14 0 0
BITMAP
0800
0000
7800
C600
0200
0100
0200
0200
3FC0
0400
0800
0800
11E0
1F80
ENDCHAR
STARTCHAR zdotaccent
ENCODING 380
SWIDTH 459 0
DWIDTH 9 0
BBX 8 12 0 0
BITMAP
08
00
38
C4
04
04
04
7E
10
20
23
3E
ENDCHAR
STARTCHAR Zcaron
ENCODING 381
SWIDTH 571 0
DWIDTH 11 0
BBX 11 15 0 0
BITMAP
0200
3E00
0800
7800
C600
0200
0100
0200
0200
3FC0
0400
0800
0800
11E0
1F80
ENDCHAR
STARTCHAR zcaron
ENCODING 382
SWIDTH 459 0
DWIDTH 9 0
BBX 8 13 0 0
BITMAP
04
7C
10
38
C4
04
04
04
7E
10
20
23
3E
ENDCHAR
STARTCHAR florin
ENCODING 402
SWIDTH 376 0
DWIDTH 7 0
BBX 11 18 -2 -5
BITMAP
0780
0C40
0820
0800
0800
0800
0800
3F80
0800
0800
0800
0800
0800
0800
8800
4800
6800
1800
ENDCHAR
STARTCHAR AEacute
ENCODING 508
SWIDTH 960 0
DWIDTH 18 0
BBX 18 16 0 0
BITMAP
002000
004000
1E8000
210000
40FF80
40C0C0
40C000
404000
404080
407F00
FFC000
404000
404000
404000
4041C0
407F80
ENDCHAR
STARTCHAR aeacute
ENCODING 509
SWIDTH 881 0
DWIDTH 17 0
BBX 17 13 0 0
BITMAP
004000
008000
010000
000000
1C7C00
02C400
018400
3D8400
63F800
818000
808000
61C000
3F3F80
ENDCHAR
STARTCHAR Oslashacute
ENCODING 510
SWIDTH 609 0
DWIDTH 12 0
BBX 11 15 0 -2
BITMAP
0600
0C00
0800
0100
3F00
4300
82C0
8240
8420
4420
4420
38C0
1F00
1000
1000
ENDCHAR
STARTCHAR oslashacute
ENCODING 511
SWIDTH 487 0
DWIDTH 9 0
BBX 9 11 0 0
BITMAP
0400
1800
1000
1F00
2300
4300
8480
8C80
4900
7300
3E00
ENDCHAR
STARTCHAR Scommaaccent
ENCODING 536
SWIDTH 627 0
DWIDTH 12 0
BBX 11 17 0 -6
BITMAP
1FC0
2040
1000
1000
0C00
0300
80C0
8020
4020
2020
1FC0
0000
0000
0400
0400
0400
0400
ENDCHAR
STARTCHAR scommaaccent
ENCODING 537
SWIDTH 514 0
DWIDTH 10 0
BBX 9 15 0 -6
BITMAP
1800
6400
4200
4000
3E00
0180
0080
E080
3F00
0000
0000
0800
0C00
0C00
0800
ENDCHAR
STARTCHAR circumflex
ENCODING 710
SWIDTH 375 0
DWIDTH 7 0
BBX 5 4 1 10
BITMAP
20
30
58
88
ENDCHAR
STARTCHAR caron
ENCODING 711
SWIDTH 375 0
DWIDTH 7 0
BBX 5 3 1 9
BITMAP
08
F8
20
ENDCHAR
STARTCHAR breve
ENCODING 728
SWIDTH 224 0
DWIDTH 4 0
BBX 4 2 0 8
BITMAP
20
F0
ENDCHAR
STARTCHAR dotaccent
ENCODING 729
SWIDTH 152 0
DWIDTH 3 0
BBX 1 1 1 9
BITMAP
80
ENDCHAR
STARTCHAR ring
ENCODING 730
SWIDTH 333 0
DWIDTH 6 0
BBX 3 3 2 8
BITMAP
60
A0
E0
ENDCHAR
STARTCHAR ogonek
ENCODING 731
SWIDTH 254 0
DWIDTH 5 0
BBX 3 4 1 -3
BITMAP
40
80
80
E0
ENDCHAR
STARTCHAR tilde
ENCODING 732
SWIDTH 402 0
DWIDTH 8 0
BBX 7 2 0 8
BITMAP
76
8C
ENDCHAR
STARTCHAR hungarumlaut
ENCODING 733
SWIDTH 264 0
DWIDTH 5 0
BBX 4 3 1 8
BITMAP
40
B0
A0
ENDCHAR
STARTCHAR Wgrave
ENCODING 7808
SWIDTH 703 0
DWIDTH 13 0
BBX 13 14 0 0
BITMAP
0400
0300
0100
0000
0000
8030
8010
8010
8418
C408
4608
4608
6910
30E0
ENDCHAR
STARTCHAR wgrave
ENCODING 7809
SWIDTH 656 0
DWIDTH 12 0
BBX 12 11 0 0
BITMAP
0400
0200
0100
4000
C020
8220
8210
8210
4610
6D30
38E0
ENDCHAR
STARTCHAR Wacute
ENCODING 7810
SWIDTH 703 0
DWIDTH 13 0
BBX 13 13 0 0
BITMAP
0300
0400
0800
0000
8030
8010
8010
8418
C408
4608
4608
6910
30E0
ENDCHAR
STARTCHAR wacute
ENCODING 7811
SWIDTH 656 0
DWIDTH 12 0
BBX 12 12 0 0
BITMAP
0300
0400
0800
0000
4000
C020
8220
8210
8210
4610
6D30
38E0
ENDCHAR
STARTCHAR Wdieresis
ENCODING 7812
SWIDTH 703 0
DWIDTH 13 0
BBX 13 13 0 0
BITMAP
0D80
0D80
0000
0000
8030
8010
8010
8418
C408
4608
4608
6910
30E0
ENDCHAR
STARTCHAR wdieresis
ENCODING 7813
SWIDTH 656 0
DWIDTH 12 0
BBX 12 10 0 0
BITMAP
0D00
0980
4000
C020
8220
8210
8210
4610
6D30
38E0
ENDCHAR
STARTCHAR Ygrave
ENCODING 7922
SWIDTH 403 0
DWIDTH 8 0
BBX 7 16 0 0
BITMAP
20
18
08
00
82
42
62
32
1E
04
04
08
08
08
08
08
ENDCHAR
STARTCHAR ygrave
ENCODING 7923
SWIDTH 487 0
DWIDTH 9 0
BBX 9 20 0 -9
BITMAP
1000
0C00
0400
8100
8100
8100
4180
4180
6180
3680
0880
0080
0080
0080
0080
0080
4080
4100
3100
1E00
ENDCHAR
STARTCHAR endash
ENCODING 8211
SWIDTH 287 0
DWIDTH 5 0
BBX 5 1 0 5
BITMAP
F8
ENDCHAR
STARTCHAR emdash
ENCODING 8212
SWIDTH 512 0
DWIDTH 10 0
BBX 9 1 0 5
BITMAP
FF80
ENDCHAR
STARTCHAR quoteleft
ENCODING 8216
SWIDTH 102 0
DWIDTH 2 0
BBX 2 5 0 9
BITMAP
80
80
C0
40
40
ENDCHAR
STARTCHAR quoteright
ENCODING 8217
SWIDTH 102 0
DWIDTH 2 0
BBX 2 5 0 9
BITMAP
80
80
C0
40
40
ENDCHAR
STARTCHAR quotesinglbase
ENCODING 8218
SWIDTH 102 0
DWIDTH 2 0
BBX 2 5 0 -1
BITMAP
80
C0
40
40
40
ENDCHAR
STARTCHAR quotedblleft
ENCODING 8220
SWIDTH 234 0
DWIDTH 4 0
BBX 4 6 0 9
BITMAP
A0
90
90
50
50
10
ENDCHAR
STARTCHAR quotedblright
ENCODING 8221
SWIDTH 234 0
DWIDTH 4 0
BBX 4 6 0 9
BITMAP
A0
90
90
50
50
10
ENDCHAR
STARTCHAR quotedblbase
ENCODING 8222
SWIDTH 341 0
DWIDTH 7 0
BBX 4 6 1 -2
BITMAP
20
90
D0
50
50
50
ENDCHAR
STARTCHAR dagger
ENCODING 8224
SWIDTH 375 0
DWIDTH 7 0
BBX 7 12 0 0
BITMAP
20
10
10
10
7E
90
10
10
10
10
10
08
ENDCHAR
STARTCHAR daggerdbl
ENCODING 8225
SWIDTH 375 0
DWIDTH 7 0
BBX 9 14 -1 0
BITMAP
1000
1800
0800
0800
0800
FF80
0800
0F00
FF80
0800
0800
0800
0800
0400
ENDCHAR
STARTCHAR bullet
ENCODING 8226
SWIDTH 341 0
DWIDTH 7 0
BBX 3 4 2 3
BITMAP
40
E0
E0
40
ENDCHAR
STARTCHAR ellipsis
ENCODING 8230
SWIDTH 612 0
DWIDTH 12 0
BBX 10 4 1 0
BITMAP
8880
CCC0
CCC0
CCC0
ENDCHAR
STARTCHAR guilsinglleft
ENCODING 8249
SWIDTH 487 0
DWIDTH 9 0
BBX 9 8 0 0
BITMAP
0180
0300
0C00
1800
2000
4000
FE00
0300
ENDCHAR
STARTCHAR guilsinglright
ENCODING 8250
SWIDTH 403 0
DWIDTH 8 0
BBX 7 9 1 0
BITMAP
80
C0
3C
06
0C
18
30
C0
80
ENDCHAR
STARTCHAR fraction
ENCODING 8260
SWIDTH 309 0
DWIDTH 6 0
BBX 6 14 0 0
BITMAP
04
08
08
08
18
10
10
30
20
20
40
40
C0
80
ENDCHAR
STARTCHAR Euro
ENCODING 8364
SWIDTH 741 0
DWIDTH 14 0
BBX 14 13 0 0
BITMAP
0070
0090
0300
7FC0
EC20
0800
08C0
7F00
9000
1000
0800
083C
07E0
ENDCHAR
STARTCHAR trademark
ENCODING 8482
SWIDTH 1116 0
DWIDTH 21 0
BBX 21 12 0 0
BITMAP
F81010
1FF810
020C30
020C70
020BF0
020810
020810
020810
030810
010810
010818
018018
ENDCHAR
STARTCHAR minus
ENCODING 8722
SWIDTH 287 0
DWIDTH 5 0
BBX 5 1 0 5
BITMAP
F8
ENDCHAR
STARTCHAR commaaccent
ENCODING 63171
SWIDTH 375 0
DWIDTH 7 0
BBX 2 4 2 -6
BITMAP
C0
40
40
80
ENDCHAR
STARTCHAR fi
ENCODING 64257
SWIDTH 551 0
DWIDTH 10 0
BBX 9 13 0 0
BITMAP
1E00
3100
2680
2000
2000
2200
2200
FE00
3300
1300
1900
0900
0D00
ENDCHAR
STARTCHAR fl
ENCODING 64258
SWIDTH 723 0
DWIDTH 14 0
BBX 9 13 0 0
BITMAP
1E00
3100
2280
2200
2200
2200
2200
FE00
3200
1200
1A00
0A00
0E00
ENDCHAR
STARTCHAR .notdef
ENCODING -1
SWIDTH 375 0
DWIDTH 7 0
BBX 1 1 0 0
BITMAP
00
ENDCHAR
STARTCHAR .null
ENCODING -1
SWIDTH 0 0
DWIDTH 0 0
BBX 1 1 0 0
BITMAP
00
ENDCHAR
STARTCHAR nonmarkingreturn
ENCODING -1
SWIDTH 375 0
DWIDTH 7 0
BBX 1 1 0 0
BITMAP
00
ENDCHAR
ENDFONT
